<?xml version="1.0" encoding="UTF-8"?><svg id="a" xmlns="http://www.w3.org/2000/svg" viewBox="0 0 2383.9 678.53"><g id="b"><path id="c" d="M783.93,471.95v-32.31l143.02.21c7.31,0,12.92-1.69,16.74-5.08,3.92-3.39,5.83-8.9,5.83-16.53s-1.91-13.14-5.83-16.53c-3.92-3.39-9.53-5.08-16.74-5.08h-89.09c-18.43,0-32.73-4.45-42.9-13.35-10.17-8.9-15.25-21.93-15.25-39.2s5.08-30.3,15.25-39.2c10.17-8.9,24.47-13.35,42.9-13.35h139.84v32.31l-135.6-.21c-7.1,0-12.71,1.59-16.63,4.87-4.03,3.28-5.93,8.37-5.93,15.57s2.01,12.29,5.93,15.57c4.03,3.28,9.53,4.87,16.63,4.87h89.09c18.43,0,32.73,4.56,42.9,13.56,10.17,9,15.25,22.46,15.25,40.15s-5.08,30.93-15.25,40.04c-10.17,9.11-24.47,13.67-42.9,13.67h-147.25v.02Z"/><path id="d" d="M1014.35,470.68v-177.87h195.03v32.31h-155.2v39.3h140.79v32.31h-140.79v41.53h155.2v32.31h-195.03v.11h0Z"/><path id="e" d="M1326.44,471.95c-31.68,0-56.25-7.63-73.63-22.78s-26.17-37.71-26.17-67.48,8.69-52.12,26.17-67.27c17.37-15.15,42.59-22.78,75.32-22.78h44.81c32.84,0,57.95,7.63,75.32,22.78s26.17,37.61,26.17,67.27-8.69,52.33-26.17,67.48c-17.37,15.15-42.16,22.78-74.16,22.78h-3.28v26.17h-39.83v-26.17h-4.77.22ZM1371.04,408.49v31.15c21.4-.21,37.18-4.77,47.46-13.88,10.28-9.11,15.47-23.84,15.47-44.07s-5.19-34.85-15.57-44.07c-10.38-9.11-26.38-13.67-48.1-13.67h-39.3c-21.61,0-37.61,4.56-47.99,13.67-10.49,9.11-15.68,23.84-15.68,44.07s5.19,34.96,15.68,44.18c10.49,9.22,26.48,13.77,48.31,13.77v-31.15h39.83-.11Z"/><path id="f" d="M1571.26,471.95c-18.12,0-32.31-2.33-42.8-7.1-10.49-4.77-17.9-11.86-22.35-21.51-4.45-9.64-6.67-21.72-6.67-36.34v-114.2h39.83v114.2c0,12.61,2.97,21.19,8.79,25.74,5.93,4.56,15.89,6.89,29.98,6.89h47.99c14.09,0,24.05-2.33,29.98-6.89,5.93-4.56,8.79-13.14,8.79-25.74v-114.2h39.83v114.2c0,14.62-2.22,26.7-6.67,36.34-4.45,9.64-11.97,16.74-22.35,21.51-10.49,4.77-24.68,7.1-42.8,7.1h-61.55,0Z"/><path id="g" d="M1739.38,470.68v-177.87h195.03v32.31h-155.2v39.3h140.79v32.31h-140.79v41.53h155.2v32.31h-195.03v.11h0Z"/><path id="h" d="M1961.74,470.68v-177.87h40.26l125.85,127.87v-127.87h39.83v177.87h-40.26l-125.85-128.08v128.08h-39.83Z"/><path id="i" d="M2192.58,470.68v-30.09l133.59-114.94h-127.87v-32.31h185.6v30.09l-133.8,114.94h133.37v32.31h-190.9,0Z"/></g><rect id="j" x="648.65" width="14.73" height="678.53"/><path id="k" d="M227.97,617.51c-4.34,0-9.11-.32-10.7-.42l-2.75-.21v-.32c-.21-.21,0-1.06.42-2.12,1.38-3.6,4.66-13.35,6.46-19.39,7.42-24.15,13.14-50.64,18.43-84.54,2.01-12.5,4.98-33.69,4.87-34.22-.11-.64-10.91,13.03-13.88,17.59l-2.75,4.13-3.39,3.28c-1.8,1.8-5.08,4.98-7.31,7.1-9.22,9.22-20.76,17.59-33.05,23.94-13.03,6.78-26.06,10.91-40.04,12.82l-2.97.42h-9.32c-13.14.32-18.43,0-25-2.01-1.69-.42-4.45-1.06-6.36-1.27-11.97-1.48-22.99-5.83-37.71-14.73-10.7-6.46-18.43-12.5-26.48-20.76-6.14-6.25-9.96-11.02-14.62-18.01-3.81-5.72-5.61-8.9-8.69-15.25-12.5-25.64-16.1-52.44-10.7-79.66,4.56-23.2,14.41-44.81,29.56-64.94,6.46-8.58,12.08-14.94,21.19-23.94,9.11-8.9,12.82-12.18,35.49-30.4,23.52-18.96,51.91-42.59,66.42-55.41,7.52-6.67,13.24-12.08,20.98-19.92,14.62-14.73,26.7-28.92,38.77-45.45,12.82-17.59,27.23-40.47,38.03-60.7,3.39-6.36,5.19-9.32,5.51-9.32s2.33,3.39,5.93,9.96c13.98,25.64,24.9,43.01,37.71,59.96,7.1,9.43,20.87,26.7,22.03,27.65.64.53,1.48.95,1.91,1.06h.74l.32-1.17c.11-.74.32-1.8.32-2.33v-1.06l1.27-2.75c.74-1.59,1.38-3.5,1.59-4.56l.32-1.8-.32-3.5-.32-3.5.32-1.91c.64-4.77,3.28-11.44,5.3-13.77,1.8-2.01,2.12-1.27,1.38,2.97l-.53,2.97.53,3.07.53,3.07-.21,2.54-.21,2.54.53,2.12.53,2.12v5.08c.21,5.83.21,8.79,0,11.44v1.91l.95,2.22c1.27,2.65,2.54,4.03,4.03,4.34l1.06.32,2.44-.42c1.38-.21,3.07-.74,3.81-1.06,4.13-2.01,6.46-7.42,9-20.87l.64-3.5v-5.51c-.11-3.07-.32-5.61-.32-5.83s0-2.33.21-4.77.53-7.52.64-11.12l.21-6.57.53-3.5c.32-1.91.74-4.87.95-6.57.53-3.6.74-4.24,1.69-4.56.42,0,1.06-.74,1.38-1.27,1.17-1.91,3.07-6.78,4.34-11.55.95-3.6,1.69-5.08,3.07-6.67.64-.74,1.69-2.12,2.33-3.07s1.69-2.22,2.22-2.75l.95-.85v.42c0,.53-1.38,4.56-3.39,9.64-.85,2.22-1.69,4.87-1.91,5.83-.21.95-.53,4.13-.64,7.1-.21,4.98-.64,7.73-1.27,9.43-.11.42-.42,2.44-.64,4.56s-.53,4.77-.85,5.83c-.42,2.33-.53,3.5-.32,17.59,0,5.51.32,11.23.42,12.71.42,3.81,1.27,9.32,1.69,11.12l.32,1.59-.32,4.24-.32,4.24.53,1.69c.95,3.07,4.34,7.2,7.2,8.58,2.54,1.27,4.98.85,8.16-1.38,1.17-.85,5.19-4.56,10.17-9.53s9.53-9.22,11.02-10.49c3.28-2.86,5.4-4.98,7.31-7.52,1.48-2.01,2.33-2.86,3.81-3.92,1.48-.95,5.51-4.24,6.14-4.98,1.69-1.91,6.25-9.43,8.79-14.51,2.22-4.34,3.39-7.42,6.46-15.78,1.38-3.71,3.07-8.37,3.92-10.38,2.97-7.2,6.57-13.77,8.79-16.1l1.27-1.27,1.59-.53c3.5-1.27,5.83-3.28,7.52-6.25.42-.74,3.28-7.2,6.36-14.41,5.08-11.86,8.37-18.86,9.11-19.07h.53l.32.21.32,7.1.32,7.1-.42,2.65c-.74,4.56-1.06,5.4-7.84,17.59-3.81,6.78-4.87,8.47-6.99,10.28-1.8,1.59-2.54,2.86-2.65,5.08-.21,2.22-.64,2.97-3.71,6.04l-2.65,2.75-1.59,4.98-1.59,4.98-1.27,1.69c-1.59,2.12-2.12,3.18-3.28,6.46-.95,2.75-7.2,16.63-9.53,21.51-2.12,4.24-4.03,6.89-6.89,9.85l-2.54,2.65-5.51,10.59c-7.31,13.98-7.42,14.2-7.95,16.53l-.42,2.01.21,2.33c.11,1.27.21,5.83.21,10.17v7.84l.53,1.06c.32.53,1.06,1.48,1.59,2.01l1.06,1.06.85,2.12c1.38,3.6,2.75,5.08,4.56,5.51,2.12.42,3.71-.53,5.08-3.18l.95-1.8,1.8-1.8c3.18-3.07,4.34-5.3,4.66-9l.21-2.22,1.27-1.48c.74-.85,2.01-2.54,2.86-3.71.85-1.17,2.33-3.07,3.28-4.13l1.8-1.91,1.8-.85c1.06-.53,2.65-1.06,3.6-1.17l1.8-.32.74.53c.42.32.85.85.95,1.17l.21.64-.42.85-.42.85-2.75,2.12c-3.6,2.75-5.4,4.45-6.36,5.93l-.85,1.27v.95c.21.53.74,1.8,1.38,2.86,1.69,2.75,2.12,4.45,1.38,6.46-.21.53-1.06,2.12-2.01,3.5-1.91,2.97-2.86,4.98-2.86,6.46s.85,3.07,2.01,3.81c.53.32,2.65,1.69,4.66,2.86,2.01,1.27,4.24,2.75,4.77,3.39s1.27,1.17,1.38,1.17.64-.21.95-.53,1.91-.95,3.5-1.38c2.22-.74,4.13-1.69,5.93-3.07,1.17-.85,2.75-1.91,3.39-2.22l1.27-.64,2.54-.21,2.54-.21,2.97-.95c1.59-.53,3.28-1.06,3.71-1.27l.74-.42,1.17.21c.64,0,1.38.32,1.69.42l.42.21v.95c0,2.33-2.01,3.92-8.16,6.25-6.25,2.44-10.59,5.19-17.06,11.02-3.6,3.18-5.19,4.34-8.47,5.72-2.97,1.27-4.56,2.44-6.25,4.24-2.33,2.54-3.39,5.08-4.66,11.12-.53,2.22-1.06,4.66-1.27,5.3-.85,2.86-.32,3.81,3.6,7.2,20.34,17.06,31.36,28.39,42.69,44.28,7.84,10.91,14.94,23.2,19.49,33.79,5.4,12.61,8.16,23.41,9.43,37.29l.42,4.66v18.43l-.42,4.13c-1.8,16.31-5.51,29.45-12.18,43.01-6.36,12.92-14.62,24.37-25.32,35.07-20.23,20.23-44.49,32.2-73.84,36.44-14.2,2.01-28.92,1.38-43.96-1.91-4.87-1.06-5.51-1.27-10.06-3.28-2.22-.95-5.51-2.22-7.2-2.75-8.69-2.54-16.63-6.78-28.6-15.47-10.49-7.63-19.39-15.89-27.12-25.21-6.46-7.63-8.9-11.34-12.29-18.01-.95-1.91-2.12-4.03-2.54-4.77l-.85-1.38-.42.21-.42.21.21,1.69c.32,3.07,2.97,21.61,4.45,30.93,6.57,41.32,14.09,73.84,24.68,105.2,1.17,3.39,2.01,6.25,2.01,6.25-.85.85-50.85,1.38-75.11.85h0l.64-.21h0v.11h.04ZM275.01,415.8l5.51-5.51-.95-.95c-.53-.53-2.97-2.86-5.51-5.19l-4.56-4.24,5.61-5.61,5.61-5.61-5.72-5.72-5.72-5.72,1.69-1.69c.95-.95,3.39-3.5,5.4-5.61s3.71-3.92,3.81-4.03c0,0-2.44-2.54-5.4-5.3l-5.51-5.19,5.72-5.51,5.72-5.51-5.72-5.72-5.72-5.72,5.72-5.72,5.72-5.72-5.4-5.19-5.4-5.19,5.4-5.3,5.4-5.3-5.93-5.93-5.93-5.93-5.4,5.61-5.4,5.61-5.08-5.51-5.08-5.51-5.72,5.72-5.72,5.72,5.61,5.61,5.61,5.61-5.4,5.19c-2.97,2.86-5.4,5.19-5.4,5.3,0,.42,10.81,10.91,11.12,10.81h.32s-.11.32-.32.32-2.86,2.54-5.93,5.61l-5.61,5.61,5.3,5.19c2.97,2.86,5.3,5.3,5.3,5.4,0,0-2.33,2.44-5.3,5.19l-5.19,5.08,5.72,5.72,5.72,5.72,3.5-3.71c1.91-2.01,4.34-4.56,5.3-5.51l1.8-1.91,5.3,5.72c2.86,3.18,5.3,5.83,5.3,5.93,0,.21-9.75,10.59-9.96,10.59s-2.65-2.44-5.61-5.51l-5.4-5.51-5.83,5.93-5.83,5.93,5.4,5.3,5.4,5.3-5.4,5.19-5.4,5.19,5.72,5.72,5.72,5.72,5.19-5.51c2.86-3.07,5.3-5.51,5.3-5.51,0,0,2.54,2.54,5.4,5.72,2.86,3.07,5.3,5.61,5.4,5.61s2.65-2.54,5.72-5.51h0v-.11.05ZM253.93,338.05l-5.3-5.4,5.08-5.51c2.86-3.07,5.19-5.51,5.3-5.51.21,0,10.38,10.81,10.38,11.02s-10.06,10.91-10.17,10.91c0,0-2.44-2.44-5.3-5.4h0v-.11h.01Z"/></svg>