<?xml version="1.0" encoding="UTF-8"?>
<svg id="Ebene_1" xmlns="http://www.w3.org/2000/svg" version="1.1" xmlns:inkscape="http://www.inkscape.org/namespaces/inkscape" xmlns:sodipodi="http://sodipodi.sourceforge.net/DTD/sodipodi-0.dtd" xmlns:svg="http://www.w3.org/2000/svg" viewBox="0 0 1446.5 1559.6">
  <!-- Generator: Adobe Illustrator 29.2.1, SVG Export Plug-In . SVG Version: 2.1.0 Build 116)  -->
  <defs>
    <style>
      .st0 {
        fill: #fff;
      }
    </style>
  </defs>
  <path id="Symbol1" class="st0" d="M637.4,1558.9c-12.1-.3-25.6-.8-29.9-1.1l-7.8-.5-.3-.9c-.2-.5.5-3.1,1.5-5.8,3.8-10.2,12.9-37.5,18.1-54.3,20.7-67.6,36.9-141.8,51.7-236.6,5.5-35.1,13.9-94.3,13.7-95.7-.3-1.7-30.4,36.5-38.8,49.3l-7.6,11.6-9.4,9c-5.2,5-14.3,13.9-20.3,19.9-25.9,25.8-58.2,49.2-92.7,67-36.5,18.9-72.8,30.5-112,35.9l-8.2,1.1-26.1.4c-36.9.5-51.6-.7-69.9-6-4.6-1.3-12.6-2.9-17.7-3.6-33.6-4.3-64.5-16.3-105.6-41.1-29.9-18-51.7-35.1-74.2-58.1-17.1-17.5-27.8-30.8-40.9-50.6-10.5-16-15.7-25-24.3-42.7C1.7,1084.2-8.3,1009.4,6.8,933c12.9-65.1,40.4-125.4,82.9-181.8,18-23.9,34-41.9,59.4-67,25.4-25,35.9-34,99.4-85,65.9-52.9,145.2-119.1,185.8-155,21.2-18.7,37.1-33.8,58.8-55.7,40.8-41.2,74.7-80.9,108.6-127.3,35.9-49.1,76.1-113.2,106.6-169.8,9.6-17.9,14.5-26.2,15.3-26.2s6.6,9.4,16.7,27.8c39.1,71.7,69.7,120.3,105.6,167.9,19.8,26.3,58.5,74.7,61.8,77.4,1.7,1.4,4.1,2.8,5.3,3l2.2.4.8-3.7c.4-2.1.8-5,.8-6.6v-2.9l3.6-7.7c2-4.3,4-9.9,4.5-12.7l.9-4.9-.8-9.9-.8-9.9.8-5.4c1.9-13.5,9.1-32,14.9-38.4,5-5.5,5.9-3.5,3.9,8.2l-1.5,8.4,1.5,8.5,1.5,8.5-.5,7.2-.5,7.2,1.6,5.8,1.6,5.8.3,14.1c.3,16.3.3,24.6,0,32.1l-.2,5.3,3,6.1c3.7,7.4,7.1,11.1,11.3,12.3l3.1.8,6.9-1.2c3.8-.7,8.5-2,10.6-3,11.6-5.6,18.2-20.9,25.2-58.4l1.9-9.9-.3-15.5c-.2-8.5-.5-15.8-.7-16.2-.2-.4,0-6.4.7-13.3.6-6.9,1.4-20.9,1.7-31.1l.5-18.5,1.5-9.8c.8-5.4,2-13.6,2.7-18.3,1.4-9.9,2.1-11.8,4.8-12.8,1.1-.4,2.8-2,3.8-3.6,3.4-5.4,8.5-19,12.1-32.3,2.7-10,4.7-14.3,8.5-18.7,1.7-1.9,4.6-5.8,6.6-8.7,1.9-2.8,4.7-6.3,6.1-7.7l2.6-2.5v1.2c0,1.5-4,12.8-9.5,27.1-2.4,6.3-4.9,13.7-5.5,16.4s-1.3,11.7-1.7,19.9c-.6,14-1.7,21.6-3.5,26.4-.4,1.1-1.3,6.8-1.9,12.7-.6,5.9-1.6,13.2-2.3,16.4-1.3,6.4-1.4,9.7-.8,49.3.2,15.5.8,31.5,1.2,35.5,1.3,10.8,3.6,26.2,4.8,31.1l1,4.3-.8,11.8-.8,11.8,1.5,4.9c2.6,8.7,12.3,20.2,20,24,7.2,3.5,14,2.4,22.8-3.7,3.3-2.3,14.5-12.8,28.6-26.7,12.7-12.6,26.6-25.9,30.8-29.5,9.3-8,15.1-14.1,20.4-21.2,4.3-5.7,6.6-8.1,10.7-10.9s15.4-11.9,17.1-13.8c4.6-5.2,17.5-26.5,24.6-40.5,6.1-12.2,9.6-20.7,18-44.3,3.8-10.5,8.6-23.5,10.8-29,8.2-20.2,18.3-38.7,24.6-45l3.7-3.7,4.3-1.6c9.8-3.7,16.4-9.1,21.2-17.6,1.2-2.1,9.2-20.3,17.8-40.4,14.2-33.1,23.5-52.7,25.4-53.3.4,0,1.1,0,1.6.4l.9.6.8,19.9.8,19.9-1.2,7.4c-2.1,12.9-3.1,15.2-22,49.4-10.5,19-13.8,23.8-19.6,28.8-5,4.3-7,8.1-7.5,14.3-.5,6.1-1.8,8.2-10.3,16.9l-7.4,7.6-4.5,13.9-4.5,13.9-3.5,4.6c-4.4,5.8-6,8.9-9.2,18.1-2.7,7.8-20,46.6-26.8,60.2-5.9,11.7-11.2,19.4-19.4,27.6l-7.3,7.3-15.6,29.6c-20.5,39-20.8,39.7-22.1,46.3l-1.1,5.7.6,6.5c.3,3.6.6,16.4.6,28.6v22.1l1.6,2.9c.9,1.6,2.9,4.2,4.5,5.7l2.9,2.8,2.3,5.9c4,10,7.6,14.4,12.6,15.3,6.1,1.1,10.4-1.6,14.3-8.9l2.6-4.9,5.1-4.9c9-8.7,12.1-14.8,13-25.1l.5-6.2,3.7-4.3c2-2.4,5.6-7.1,7.9-10.4,2.4-3.4,6.5-8.5,9.3-11.4l5-5.3,5.1-2.5c2.8-1.4,7.3-2.9,10-3.4l4.9-.9,2,1.5c1.1.8,2.3,2.3,2.7,3.4l.7,1.9-1.2,2.5-1.2,2.5-7.6,5.9c-10.1,7.8-15,12.3-17.8,16.5l-2.3,3.4.3,2.7c.2,1.5,1.8,5.1,3.6,8,4.8,7.7,5.8,12.5,3.8,18.1-.5,1.5-3,5.9-5.6,9.8-5.4,8.4-7.9,14-7.9,17.9s2.3,8.6,5.5,10.7c1.5,1,7.5,4.6,13.2,8.1s11.8,7.8,13.5,9.5,3.5,3.1,3.9,3.1,1.7-.6,2.8-1.4c1.1-.8,5.4-2.5,9.7-3.9,9.3-3,9.1-2.9,16.7-8.6,3.3-2.5,7.7-5.3,9.6-6.3l3.5-1.7,7-.6,7-.6,8.2-2.5c4.5-1.4,9.2-3.1,10.3-3.7l2-1.2,3.4.5c1.9.3,4,.8,4.6,1.2l1.3.7v2.5c0,6.5-5.6,10.8-22.7,17.5-17.5,6.8-29.7,14.6-47.8,30.9-10,9-14.6,12.1-23.7,16.1-8.2,3.6-12.9,6.8-17.5,11.9-6.5,7.3-9.4,14.1-13.1,31-1.4,6.2-3,12.9-3.6,14.9-2.4,7.9-1,10.8,10,20.1,57,47.9,87.6,79.6,119.6,124,22.1,30.7,41.9,65,54.6,94.6,15.1,35.3,22.8,65.7,26.5,104.4l1.2,13v51.4l-1.2,11.6c-4.9,45.5-15.3,82.3-34.1,120.4-17.8,36.1-41.1,68.3-70.9,98.2-56.7,56.8-124.5,90.3-206.6,102-39.8,5.7-81,3.8-123-5.5-13.6-3-15.4-3.6-28.1-9.3-6.2-2.8-15.3-6.2-20.2-7.6-24.4-7-46.7-19.1-80-43.4-29.3-21.4-54.3-44.6-76-70.6-17.9-21.4-25-31.8-34.3-50.3-2.6-5.2-5.8-11.2-7.2-13.3l-2.4-3.8-1.2.5-1.2.5.5,4.8c.9,8.6,8.4,60.6,12.4,86.6,18.3,115.6,39.6,206.7,69,294.5,3.2,9.5,5.7,17.4,5.6,17.6-2.3,2.3-142.3,3.9-210.3,2.4h.1ZM769.1,994.1l15.5-15.5-2.7-2.7c-1.5-1.5-8.4-8.1-15.3-14.7l-12.7-11.9,15.7-15.7,15.7-15.7-15.9-15.9-15.9-15.9,4.8-4.9c2.6-2.7,9.4-9.7,15.2-15.6,5.7-5.9,10.5-11,10.6-11.3s-6.7-7-15.1-15l-15.3-14.4,16-15.5,16-15.5-16.1-16.2-16.1-16.2,16.1-16.1,16.1-16.1-15-14.5-15-14.5,15-14.7,15-14.7-16.5-16.6-16.5-16.6-15.3,15.6-15.3,15.6-14.4-15.3-14.4-15.3-16,16-16,16,15.7,15.8,15.7,15.8-15.2,14.4c-8.4,7.9-15.2,14.6-15.2,14.8,0,1.1,30.3,30.6,31,30.2.4-.3.8-.2.8.3s-.4.8-.9.8-8,7.1-16.7,15.8l-15.8,15.8,14.9,14.6c8.2,8,14.8,14.9,14.8,15.2s-6.7,6.9-14.7,14.6l-14.6,14.1,16,16.1,16,16.1,9.8-10.3c5.4-5.7,12-12.7,14.8-15.5l5.1-5.2,14.8,16.1c8.1,8.8,14.8,16.2,14.8,16.5,0,.5-27.2,29.6-27.8,29.6s-7.3-6.9-15.7-15.3l-15.2-15.3-16.4,16.6-16.4,16.6,15,14.7,15,14.7-15.1,14.6-15.1,14.6,16.1,16,16.1,16,14.5-15.5c8-8.5,14.7-15.4,15-15.3.3,0,7,7.2,15,15.9,8,8.7,14.8,15.7,15.1,15.7s7.5-7,16.1-15.5h0l.5-.3h0ZM709.9,776.6l-14.7-15.2,14.3-15.4c7.9-8.5,14.5-15.4,14.7-15.4.6,0,29,30.1,29,30.7s-28,30.4-28.4,30.4c0,0-6.7-6.8-14.8-15.2h0Z" inkscape:export-filename="..\Symbol white 761x820.png" inkscape:export-xdpi="37.870346" inkscape:export-ydpi="37.870346" inkscape:label="Zeichen"/>
</svg>